<svg width="216" height="77" viewBox="0 0 216 77" fill="none" xmlns="http://www.w3.org/2000/svg">
<path d="M86.4432 59V24.0909H99.5341C102.216 24.0909 104.466 24.5568 106.284 25.4886C108.114 26.4205 109.494 27.7273 110.426 29.4091C111.369 31.0795 111.841 33.0284 111.841 35.2557C111.841 37.4943 111.364 39.4375 110.409 41.0852C109.466 42.7216 108.074 43.9886 106.233 44.8864C104.392 45.7727 102.131 46.2159 99.4489 46.2159H90.125V40.9659H98.5966C100.165 40.9659 101.449 40.75 102.449 40.3182C103.449 39.875 104.188 39.233 104.665 38.392C105.153 37.5398 105.398 36.4943 105.398 35.2557C105.398 34.017 105.153 32.9602 104.665 32.0852C104.176 31.1989 103.432 30.5284 102.432 30.0739C101.432 29.608 100.142 29.375 98.5625 29.375H92.767V59H86.4432ZM104.477 43.1818L113.119 59H106.062L97.5739 43.1818H104.477ZM128.605 59.5114C125.98 59.5114 123.713 58.9659 121.804 57.875C119.906 56.7727 118.446 55.2159 117.423 53.2045C116.401 51.1818 115.889 48.8011 115.889 46.0625C115.889 43.3693 116.401 41.0057 117.423 38.9716C118.457 36.9261 119.901 35.3352 121.753 34.1989C123.605 33.0511 125.781 32.4773 128.281 32.4773C129.895 32.4773 131.418 32.7386 132.849 33.2614C134.293 33.7727 135.565 34.5682 136.668 35.6477C137.781 36.7273 138.656 38.1023 139.293 39.7727C139.929 41.4318 140.247 43.4091 140.247 45.7045V47.5966H118.787V43.4375H134.332C134.321 42.2557 134.065 41.2045 133.565 40.2841C133.065 39.3523 132.366 38.6193 131.469 38.0852C130.582 37.5511 129.548 37.2841 128.366 37.2841C127.105 37.2841 125.997 37.5909 125.043 38.2045C124.088 38.8068 123.344 39.6023 122.81 40.5909C122.287 41.5682 122.02 42.642 122.009 43.8125V47.4432C122.009 48.9659 122.287 50.2727 122.844 51.3636C123.401 52.4432 124.179 53.2727 125.179 53.8523C126.179 54.4205 127.349 54.7045 128.69 54.7045C129.588 54.7045 130.401 54.5795 131.128 54.3295C131.855 54.0682 132.486 53.6875 133.02 53.1875C133.554 52.6875 133.957 52.0682 134.23 51.3295L139.991 51.9773C139.628 53.5 138.935 54.8295 137.912 55.9659C136.901 57.0909 135.605 57.9659 134.026 58.5909C132.446 59.2045 130.639 59.5114 128.605 59.5114ZM153.001 59.5284C151.342 59.5284 149.848 59.233 148.518 58.642C147.2 58.0398 146.155 57.1534 145.382 55.983C144.621 54.8125 144.24 53.3693 144.24 51.6534C144.24 50.1761 144.513 48.9545 145.058 47.9886C145.604 47.0227 146.348 46.25 147.291 45.6705C148.234 45.0909 149.297 44.6534 150.479 44.358C151.672 44.0511 152.905 43.8295 154.178 43.6932C155.712 43.5341 156.956 43.392 157.911 43.267C158.865 43.1307 159.558 42.9261 159.99 42.6534C160.433 42.3693 160.655 41.9318 160.655 41.3409V41.2386C160.655 39.9545 160.274 38.9602 159.513 38.2557C158.751 37.5511 157.655 37.1989 156.223 37.1989C154.712 37.1989 153.513 37.5284 152.626 38.1875C151.751 38.8466 151.161 39.625 150.854 40.5227L145.092 39.7045C145.547 38.1136 146.297 36.7841 147.342 35.7159C148.388 34.6364 149.666 33.8295 151.178 33.2955C152.689 32.75 154.359 32.4773 156.189 32.4773C157.45 32.4773 158.706 32.625 159.956 32.9205C161.206 33.2159 162.348 33.7045 163.382 34.3864C164.416 35.0568 165.246 35.9716 165.871 37.1307C166.507 38.2898 166.825 39.7386 166.825 41.4773V59H160.893V55.4034H160.689C160.314 56.1307 159.786 56.8125 159.104 57.4489C158.433 58.0739 157.587 58.5795 156.564 58.9659C155.553 59.3409 154.365 59.5284 153.001 59.5284ZM154.604 54.9943C155.842 54.9943 156.916 54.75 157.825 54.2614C158.734 53.7614 159.433 53.1023 159.922 52.2841C160.422 51.4659 160.672 50.5739 160.672 49.608V46.5227C160.479 46.6818 160.149 46.8295 159.683 46.9659C159.229 47.1023 158.717 47.2216 158.149 47.3239C157.581 47.4261 157.018 47.517 156.462 47.5966C155.905 47.6761 155.422 47.7443 155.013 47.8011C154.092 47.9261 153.268 48.1307 152.541 48.4148C151.814 48.6989 151.24 49.0966 150.82 49.608C150.399 50.108 150.189 50.7557 150.189 51.5511C150.189 52.6875 150.604 53.5455 151.433 54.125C152.263 54.7045 153.32 54.9943 154.604 54.9943ZM184.45 59.5114C181.837 59.5114 179.592 58.9375 177.717 57.7898C175.854 56.642 174.416 55.0568 173.405 53.0341C172.405 51 171.905 48.6591 171.905 46.0114C171.905 43.3523 172.416 41.0057 173.439 38.9716C174.462 36.9261 175.905 35.3352 177.768 34.1989C179.643 33.0511 181.859 32.4773 184.416 32.4773C186.541 32.4773 188.422 32.8693 190.058 33.6534C191.706 34.4261 193.018 35.5227 193.996 36.9432C194.973 38.3523 195.53 40 195.666 41.8864H189.768C189.53 40.625 188.962 39.5739 188.064 38.733C187.178 37.8807 185.99 37.4545 184.501 37.4545C183.24 37.4545 182.132 37.7955 181.178 38.4773C180.223 39.1477 179.479 40.1136 178.945 41.375C178.422 42.6364 178.161 44.1477 178.161 45.9091C178.161 47.6932 178.422 49.2273 178.945 50.5114C179.467 51.7841 180.2 52.767 181.143 53.4602C182.098 54.142 183.217 54.483 184.501 54.483C185.411 54.483 186.223 54.3125 186.939 53.9716C187.666 53.6193 188.274 53.1136 188.763 52.4545C189.251 51.7955 189.587 50.9943 189.768 50.0511H195.666C195.518 51.9034 194.973 53.5455 194.03 54.9773C193.087 56.3977 191.803 57.5114 190.178 58.3182C188.553 59.1136 186.643 59.5114 184.45 59.5114ZM213.807 32.8182V37.5909H198.756V32.8182H213.807ZM202.472 26.5455H208.642V51.125C208.642 51.9545 208.767 52.5909 209.017 53.0341C209.278 53.4659 209.619 53.7614 210.04 53.9205C210.46 54.0795 210.926 54.1591 211.438 54.1591C211.824 54.1591 212.176 54.1307 212.494 54.0739C212.824 54.017 213.074 53.9659 213.244 53.9205L214.284 58.7443C213.955 58.858 213.483 58.983 212.869 59.1193C212.267 59.2557 211.528 59.3352 210.653 59.358C209.108 59.4034 207.716 59.1705 206.477 58.6591C205.239 58.1364 204.256 57.3295 203.528 56.2386C202.813 55.1477 202.46 53.7841 202.472 52.1477V26.5455Z" fill="white"/>
<path d="M30.5716 32.4859C29.4025 33.1659 28.4598 34.1798 27.8627 35.3995C27.2656 36.6192 27.041 37.9898 27.2172 39.3381C27.3934 40.6864 27.9626 41.9518 28.8527 42.9742C29.7428 43.9966 30.914 44.7302 32.218 45.0821C33.522 45.4341 34.9003 45.3886 36.1787 44.9514C37.457 44.5143 38.5779 43.705 39.3997 42.6261C40.2215 41.5472 40.7072 40.247 40.7955 38.89C40.8837 37.533 40.5705 36.1801 39.8954 35.0024C38.9902 33.4233 37.4994 32.271 35.7509 31.7991C34.0023 31.3272 32.1394 31.5743 30.5716 32.4859ZM61.1648 39.946C60.7167 39.4301 60.2438 38.9128 59.7462 38.3941C60.0938 38.0261 60.4301 37.6585 60.7552 37.2911C66.8925 30.3447 69.4828 23.3784 67.0827 19.1903C64.7813 15.1747 57.9352 13.9781 49.3646 15.6568C48.5205 15.8232 47.6809 16.0108 46.846 16.2198C46.6862 15.6648 46.5162 15.113 46.3361 14.5643C43.4285 5.7381 38.7318 -0.00304028 33.9313 1.20788e-06C29.3282 0.0021187 24.8793 5.37878 22.0412 13.6963C21.7619 14.5169 21.5036 15.3442 21.2662 16.1785C20.708 16.0405 20.1475 15.9131 19.5846 15.7962C10.542 13.9259 3.25873 15.1577 0.863277 19.3482C-1.43368 23.3666 0.968495 29.9349 6.70509 36.5657C7.27401 37.2218 7.85904 37.8632 8.46018 38.4898C7.75152 39.2251 7.08047 39.9601 6.45502 40.6909C0.857468 47.2282 -1.40735 53.6891 0.885903 57.6902C3.25429 61.823 10.4351 63.174 19.1752 61.4414C19.8835 61.3 20.5879 61.1408 21.2884 60.964C21.545 61.8664 21.8265 62.7608 22.1329 63.6475C24.9585 71.7981 29.3824 77.0017 33.9693 77C38.7063 76.9972 43.455 71.4064 46.3321 62.9139C46.5593 62.2427 46.7744 61.5458 46.9783 60.8281C47.8832 61.0549 48.7938 61.2561 49.7104 61.4318C58.1314 63.0367 64.8165 61.7745 67.1055 57.7705C69.4693 53.6345 67.0322 46.6978 61.1648 39.946ZM3.69297 20.9895C5.16769 18.41 11.1198 17.4037 18.9274 19.0183C19.4263 19.1217 19.9339 19.2372 20.4499 19.3648C19.6877 22.7615 19.1498 26.2054 18.8399 29.6738C16.0228 31.6702 13.3369 33.8482 10.7991 36.1942C10.2399 35.6117 9.69571 35.015 9.16642 34.4043C4.2512 28.7229 2.30872 23.4111 3.69297 20.9895ZM18.5474 43.0426C16.5961 41.5542 14.7826 40.0294 13.1367 38.4958C14.7815 36.9717 16.5961 35.452 18.5434 33.9676C18.4734 35.4797 18.4388 36.9931 18.4394 38.5075C18.4404 40.0198 18.4764 41.5315 18.5474 43.0426ZM18.5451 58.2139C15.2325 58.9559 11.8126 59.0774 8.45636 58.5725C7.5363 58.5003 6.6407 58.2389 5.82491 57.8043C5.00913 57.3697 4.29048 56.7711 3.71338 56.0457C2.32194 53.6176 4.14052 48.4304 8.92767 42.8394C9.52952 42.1387 10.1511 41.4563 10.7924 40.7922C13.3306 43.1504 16.0209 45.3369 18.8456 47.3374C19.1598 50.8501 19.7039 54.3381 20.4745 57.7786C19.8351 57.9397 19.1919 58.0848 18.5451 58.2139ZM45.6848 27.2625C44.403 26.4488 43.1053 25.6613 41.7918 24.8999C40.4993 24.1505 39.1911 23.4291 37.8675 22.736C40.1339 21.776 42.3617 20.9562 44.5124 20.2881C45.0194 22.5915 45.4107 24.9193 45.6848 27.2625ZM25.1293 14.7655C27.5609 7.63865 31.1588 3.29051 33.9331 3.28932C36.8877 3.28789 40.7266 7.9796 43.2368 15.6002C43.3999 16.0969 43.5541 16.5965 43.6993 17.0989C40.4014 18.1293 37.1749 19.3784 34.0407 20.838C30.9197 19.3612 27.7032 18.0982 24.4134 17.0575C24.6333 16.2877 24.8719 15.5237 25.1293 14.7655ZM23.5991 20.2471C25.8425 20.9585 28.0488 21.7835 30.2097 22.7188C27.5322 24.1107 24.924 25.6268 22.3849 27.2672C22.6917 24.8109 23.0998 22.4575 23.5991 20.2471ZM22.3905 49.7406C23.6567 50.5572 24.9414 51.3435 26.2446 52.0996C27.574 52.8706 28.921 53.6093 30.2858 54.3155C28.1083 55.2832 25.883 56.1376 23.6187 56.8755C23.1136 54.6344 22.701 52.2397 22.3905 49.7406ZM43.2416 61.8508C42.2248 65.1122 40.6208 68.1573 38.5097 70.8338C37.988 71.6005 37.3156 72.2515 36.5344 72.7461C35.7532 73.2408 34.8795 73.5688 33.9675 73.71C31.1844 73.7116 27.6321 69.5327 25.2157 62.5625C24.9311 61.7384 24.6693 60.9068 24.4302 60.0677C27.7358 58.9935 30.9653 57.6947 34.0965 56.1804C37.2564 57.6495 40.5086 58.9079 43.8323 59.9476C43.6508 60.5867 43.4539 61.221 43.2416 61.8508ZM44.626 56.7526C42.4506 56.075 40.1904 55.2414 37.8913 54.2674C39.1874 53.5803 40.4928 52.8546 41.8077 52.0905C43.1569 51.3056 44.4718 50.5011 45.7523 49.6769C45.4972 52.0534 45.1213 54.4149 44.626 56.7526ZM46.3317 38.4933C46.3345 40.8314 46.2621 43.1676 46.1143 45.502C44.2313 46.7857 42.2434 48.0391 40.1751 49.242C38.1153 50.4399 36.0745 51.5408 34.0725 52.5372C31.9658 51.5202 29.8998 50.4242 27.8743 49.2493C25.8602 48.0815 23.8924 46.8379 21.9707 45.5186C21.795 43.185 21.7066 40.8471 21.7052 38.505C21.7036 36.1646 21.7906 33.8273 21.9653 31.4917C23.8478 30.1967 25.8213 28.9443 27.8617 27.7576C29.9115 26.5653 31.9779 25.4691 34.0329 24.4755C36.1136 25.4942 38.1568 26.5859 40.1625 27.7505C42.1752 28.9158 44.1485 30.1461 46.0826 31.4414C46.2487 33.7885 46.3316 36.1391 46.3317 38.4933ZM49.9882 18.886C57.3313 17.4471 62.868 18.415 64.255 20.8349C65.7326 23.4129 63.6149 29.1066 58.3164 35.1044C58.0237 35.4352 57.7197 35.7677 57.405 36.1014C54.8233 33.7505 52.0856 31.5794 49.211 29.6031C48.921 26.1727 48.4033 22.7656 47.6614 19.4048C48.4521 19.2088 49.2277 19.0359 49.9882 18.886ZM49.4918 33.842C51.4308 35.2681 53.295 36.7945 55.077 38.4152C53.3029 40.0625 51.4446 41.6153 49.5096 43.0672C49.5688 41.5428 49.598 40.0177 49.597 38.4918C49.5963 36.9415 49.5613 35.3916 49.4918 33.842ZM64.2753 56.1287C62.8862 58.5586 57.5187 59.5719 50.3169 58.1994C49.4916 58.0424 48.6447 57.8556 47.7763 57.6389C48.5003 54.2349 48.995 50.7854 49.2572 47.3142C52.1269 45.3034 54.8559 43.0962 57.4249 40.708C57.8744 41.1785 58.302 41.6467 58.7076 42.1128C61.0048 44.6289 62.8226 47.5493 64.07 50.7285C64.469 51.5666 64.693 52.4783 64.7283 53.4072C64.7636 54.336 64.6094 55.2622 64.2753 56.1287Z" fill="white"/>
</svg>
