<svg width="217" height="76" viewBox="0 0 217 76" fill="none" xmlns="http://www.w3.org/2000/svg">
<path d="M112.415 29.6875C112.256 28.1989 111.585 27.0398 110.403 26.2102C109.233 25.3807 107.71 24.9659 105.835 24.9659C104.517 24.9659 103.386 25.1648 102.443 25.5625C101.5 25.9602 100.778 26.5 100.278 27.1818C99.7784 27.8636 99.5227 28.642 99.5114 29.517C99.5114 30.2443 99.6761 30.875 100.006 31.4091C100.347 31.9432 100.807 32.3977 101.386 32.7727C101.966 33.1364 102.608 33.4432 103.312 33.6932C104.017 33.9432 104.727 34.1534 105.443 34.3239L108.716 35.142C110.034 35.4489 111.301 35.8636 112.517 36.3864C113.744 36.9091 114.841 37.5682 115.807 38.3636C116.784 39.1591 117.557 40.1193 118.125 41.2443C118.693 42.3693 118.977 43.6875 118.977 45.1989C118.977 47.2443 118.455 49.0455 117.409 50.6023C116.364 52.1477 114.852 53.358 112.875 54.233C110.909 55.0966 108.528 55.5284 105.733 55.5284C103.017 55.5284 100.659 55.108 98.6591 54.267C96.6705 53.4261 95.1136 52.1989 93.9886 50.5852C92.875 48.9716 92.2727 47.0057 92.1818 44.6875H98.4034C98.4943 45.9034 98.8693 46.9148 99.5284 47.7216C100.188 48.5284 101.045 49.1307 102.102 49.5284C103.17 49.9261 104.364 50.125 105.682 50.125C107.057 50.125 108.261 49.9205 109.295 49.5114C110.341 49.0909 111.159 48.5114 111.75 47.7727C112.341 47.0227 112.642 46.1477 112.653 45.1477C112.642 44.2386 112.375 43.4886 111.852 42.8977C111.33 42.2955 110.597 41.7955 109.653 41.3977C108.722 40.9886 107.631 40.625 106.381 40.3068L102.409 39.2841C99.5341 38.5455 97.2614 37.4261 95.5909 35.9261C93.9318 34.4148 93.1023 32.4091 93.1023 29.9091C93.1023 27.8523 93.6591 26.0511 94.7727 24.5057C95.8977 22.9602 97.4261 21.7614 99.358 20.9091C101.29 20.0455 103.477 19.6136 105.92 19.6136C108.398 19.6136 110.568 20.0455 112.432 20.9091C114.307 21.7614 115.778 22.9489 116.847 24.4716C117.915 25.983 118.466 27.7216 118.5 29.6875H112.415ZM130.513 20.0909V55H124.342V20.0909H130.513ZM144.392 55.5284C142.733 55.5284 141.239 55.233 139.909 54.642C138.591 54.0398 137.545 53.1534 136.773 51.983C136.011 50.8125 135.631 49.3693 135.631 47.6534C135.631 46.1761 135.903 44.9545 136.449 43.9886C136.994 43.0227 137.739 42.25 138.682 41.6705C139.625 41.0909 140.688 40.6534 141.869 40.358C143.063 40.0511 144.295 39.8295 145.568 39.6932C147.102 39.5341 148.347 39.392 149.301 39.267C150.256 39.1307 150.949 38.9261 151.381 38.6534C151.824 38.3693 152.045 37.9318 152.045 37.3409V37.2386C152.045 35.9545 151.665 34.9602 150.903 34.2557C150.142 33.5511 149.045 33.1989 147.614 33.1989C146.102 33.1989 144.903 33.5284 144.017 34.1875C143.142 34.8466 142.551 35.625 142.244 36.5227L136.483 35.7045C136.938 34.1136 137.688 32.7841 138.733 31.7159C139.778 30.6364 141.057 29.8295 142.568 29.2955C144.08 28.75 145.75 28.4773 147.58 28.4773C148.841 28.4773 150.097 28.625 151.347 28.9205C152.597 29.2159 153.739 29.7045 154.773 30.3864C155.807 31.0568 156.636 31.9716 157.261 33.1307C157.898 34.2898 158.216 35.7386 158.216 37.4773V55H152.284V51.4034H152.08C151.705 52.1307 151.176 52.8125 150.494 53.4489C149.824 54.0739 148.977 54.5795 147.955 54.9659C146.943 55.3409 145.756 55.5284 144.392 55.5284ZM145.994 50.9943C147.233 50.9943 148.307 50.75 149.216 50.2614C150.125 49.7614 150.824 49.1023 151.312 48.2841C151.812 47.4659 152.062 46.5739 152.062 45.608V42.5227C151.869 42.6818 151.54 42.8295 151.074 42.9659C150.619 43.1023 150.108 43.2216 149.54 43.3239C148.972 43.4261 148.409 43.517 147.852 43.5966C147.295 43.6761 146.813 43.7443 146.403 43.8011C145.483 43.9261 144.659 44.1307 143.932 44.4148C143.205 44.6989 142.631 45.0966 142.21 45.608C141.79 46.108 141.58 46.7557 141.58 47.5511C141.58 48.6875 141.994 49.5455 142.824 50.125C143.653 50.7045 144.71 50.9943 145.994 50.9943ZM175.841 55.5114C173.227 55.5114 170.983 54.9375 169.108 53.7898C167.244 52.642 165.807 51.0568 164.795 49.0341C163.795 47 163.295 44.6591 163.295 42.0114C163.295 39.3523 163.807 37.0057 164.83 34.9716C165.852 32.9261 167.295 31.3352 169.159 30.1989C171.034 29.0511 173.25 28.4773 175.807 28.4773C177.932 28.4773 179.813 28.8693 181.449 29.6534C183.097 30.4261 184.409 31.5227 185.386 32.9432C186.364 34.3523 186.92 36 187.057 37.8864H181.159C180.92 36.625 180.352 35.5739 179.455 34.733C178.568 33.8807 177.381 33.4545 175.892 33.4545C174.631 33.4545 173.523 33.7955 172.568 34.4773C171.614 35.1477 170.869 36.1136 170.335 37.375C169.813 38.6364 169.551 40.1477 169.551 41.9091C169.551 43.6932 169.813 45.2273 170.335 46.5114C170.858 47.7841 171.591 48.767 172.534 49.4602C173.489 50.142 174.608 50.483 175.892 50.483C176.801 50.483 177.614 50.3125 178.33 49.9716C179.057 49.6193 179.665 49.1136 180.153 48.4545C180.642 47.7955 180.977 46.9943 181.159 46.0511H187.057C186.909 47.9034 186.364 49.5455 185.42 50.9773C184.477 52.3977 183.193 53.5114 181.568 54.3182C179.943 55.1136 178.034 55.5114 175.841 55.5114ZM197.749 46.7841L197.732 39.3352H198.72L208.129 28.8182H215.339L203.766 41.7045H202.487L197.749 46.7841ZM192.124 55V20.0909H198.294V55H192.124ZM208.555 55L200.033 43.0852L204.192 38.7386L215.936 55H208.555Z" fill="white"/>
<path d="M75.2067 29.0817C75.2029 25.9114 73.9418 22.872 71.7 20.6302C69.4582 18.3884 66.4188 17.1272 63.2484 17.1234C61.4716 17.133 59.7199 17.5429 58.1234 18.3229V11.9984C58.127 9.62114 57.421 7.2969 56.0956 5.32336C54.7702 3.34983 52.8859 1.81686 50.684 0.920782C48.482 0.0247043 46.0628 -0.193682 43.736 0.293592C41.4092 0.780867 39.2808 1.95162 37.6234 3.6559C35.6566 1.61051 33.0243 0.334326 30.2003 0.0570381C27.3763 -0.22025 24.5461 0.519575 22.219 2.14335C19.892 3.76713 18.2209 6.16821 17.5067 8.91442C16.7924 11.6606 17.0819 14.5716 18.3229 17.1234H11.9984C9.62114 17.1198 7.2969 17.8259 5.32336 19.1512C3.34983 20.4766 1.81686 22.3609 0.920782 24.5628C0.0247043 26.7648 -0.193682 29.1841 0.293592 31.5109C0.780867 33.8377 1.95162 35.966 3.6559 37.6234C1.61051 39.5902 0.334326 42.2225 0.0570381 45.0465C-0.22025 47.8705 0.519575 50.7007 2.14335 53.0278C3.76713 55.3548 6.16821 57.0259 8.91442 57.7401C11.6606 58.4544 14.5716 58.165 17.1234 56.9239V63.2484C17.1198 65.6257 17.8259 67.9499 19.1512 69.9235C20.4766 71.897 22.3609 73.43 24.5629 74.326C26.7648 75.2221 29.1841 75.4405 31.5109 74.9532C33.8377 74.466 35.966 73.2952 37.6234 71.5909C39.5902 73.6363 42.2225 74.9125 45.0465 75.1898C47.8705 75.4671 50.7007 74.7272 53.0278 73.1035C55.3548 71.4797 57.0259 69.0786 57.7401 66.3324C58.4544 63.5862 58.165 60.6752 56.9239 58.1234H63.2484C65.6257 58.127 67.9499 57.421 69.9235 56.0956C71.897 54.7702 73.43 52.8859 74.326 50.684C75.2221 48.482 75.4405 46.0628 74.9532 43.736C74.466 41.4092 73.2952 39.2808 71.5909 37.6234C72.7343 36.5139 73.6435 35.1863 74.2646 33.7191C74.8857 32.2519 75.2061 30.675 75.2067 29.0817ZM41.0401 11.9984C41.0401 10.6392 41.58 9.33561 42.5412 8.37449C43.5023 7.41336 44.8058 6.87341 46.1651 6.87341C47.5243 6.87341 48.8279 7.41336 49.789 8.37449C50.7501 9.33561 51.2901 10.6392 51.2901 11.9984V29.0817C51.2901 30.441 50.7501 31.7445 49.789 32.7057C48.8279 33.6668 47.5243 34.2067 46.1651 34.2067C44.8058 34.2067 43.5023 33.6668 42.5412 32.7057C41.58 31.7445 41.0401 30.441 41.0401 29.0817V11.9984ZM17.1234 46.1651C17.1234 47.1787 16.8228 48.1696 16.2597 49.0124C15.6966 49.8552 14.8961 50.5121 13.9597 50.9C13.0232 51.2879 11.9927 51.3894 10.9986 51.1916C10.0044 50.9939 9.09123 50.5057 8.37449 49.789C7.65774 49.0723 7.16964 48.1591 6.97189 47.1649C6.77414 46.1708 6.87563 45.1403 7.26353 44.2038C7.65143 43.2674 8.30831 42.4669 9.15111 41.9038C9.99392 41.3407 10.9848 41.0401 11.9984 41.0401H17.1234V46.1651ZM34.2067 63.2484C34.2067 64.6076 33.6668 65.9112 32.7057 66.8723C31.7445 67.8335 30.441 68.3734 29.0817 68.3734C27.7225 68.3734 26.4189 67.8335 25.4578 66.8723C24.4967 65.9112 23.9567 64.6076 23.9567 63.2484V46.1651C23.9567 44.8058 24.4967 43.5023 25.4578 42.5412C26.4189 41.58 27.7225 41.0401 29.0817 41.0401C30.441 41.0401 31.7445 41.58 32.7057 42.5412C33.6668 43.5023 34.2067 44.8058 34.2067 46.1651V63.2484ZM29.0817 34.2067H11.9984C10.6392 34.2067 9.33561 33.6668 8.37449 32.7057C7.41336 31.7445 6.87341 30.441 6.87341 29.0817C6.87341 27.7225 7.41336 26.4189 8.37449 25.4578C9.33561 24.4967 10.6392 23.9567 11.9984 23.9567H29.0817C30.441 23.9567 31.7445 24.4967 32.7057 25.4578C33.6668 26.4189 34.2067 27.7225 34.2067 29.0817C34.2067 30.441 33.6668 31.7445 32.7057 32.7057C31.7445 33.6668 30.441 34.2067 29.0817 34.2067ZM34.2067 17.1234H29.0817C28.0681 17.1234 27.0773 16.8228 26.2344 16.2597C25.3916 15.6965 24.7348 14.8961 24.3469 13.9597C23.959 13.0232 23.8575 11.9927 24.0552 10.9986C24.253 10.0044 24.7411 9.09123 25.4578 8.37449C26.1746 7.65774 27.0878 7.16964 28.0819 6.97189C29.0761 6.77414 30.1065 6.87563 31.043 7.26353C31.9795 7.65143 32.7799 8.30831 33.343 9.15111C33.9062 9.99391 34.2067 10.9848 34.2067 11.9984V17.1234ZM37.6234 37.8226C37.5573 37.755 37.4918 37.6895 37.4243 37.6234C37.4918 37.5573 37.5573 37.4918 37.6234 37.4243C37.6895 37.4918 37.755 37.5573 37.8226 37.6234C37.755 37.6895 37.6895 37.755 37.6234 37.8226ZM46.1651 68.3734C44.8063 68.3719 43.5036 67.8315 42.5428 66.8707C41.582 65.9099 41.0416 64.6072 41.0401 63.2484V58.1234H46.1651C47.5243 58.1234 48.8279 58.6634 49.789 59.6245C50.7501 60.5856 51.2901 61.8892 51.2901 63.2484C51.2901 64.6076 50.7501 65.9112 49.789 66.8723C48.8279 67.8335 47.5243 68.3734 46.1651 68.3734ZM63.2484 51.2901H46.1651C44.8058 51.2901 43.5023 50.7501 42.5412 49.789C41.58 48.8279 41.0401 47.5243 41.0401 46.1651C41.0401 44.8058 41.58 43.5023 42.5412 42.5412C43.5023 41.58 44.8058 41.0401 46.1651 41.0401H63.2484C64.6076 41.0401 65.9112 41.58 66.8723 42.5412C67.8335 43.5023 68.3734 44.8058 68.3734 46.1651C68.3734 47.5243 67.8335 48.8279 66.8723 49.789C65.9112 50.7501 64.6076 51.2901 63.2484 51.2901ZM63.2484 34.2067H58.1234V29.0817C58.1234 28.0681 58.424 27.0772 58.9871 26.2344C59.5503 25.3916 60.3507 24.7348 61.2872 24.3469C62.2236 23.959 63.2541 23.8575 64.2482 24.0552C65.2424 24.253 66.1556 24.7411 66.8723 25.4578C67.5891 26.1746 68.0772 27.0878 68.2749 28.0819C68.4727 29.0761 68.3712 30.1065 67.9833 31.043C67.5954 31.9795 66.9385 32.7799 66.0957 33.343C65.2529 33.9062 64.262 34.2067 63.2484 34.2067Z" fill="white"/>
</svg>
