<svg width="294" height="58" viewBox="0 0 294 58" fill="none" xmlns="http://www.w3.org/2000/svg">
<path d="M102.909 16.392V11.0909H130.761V16.392H119.972V46H113.699V16.392H102.909ZM139.83 46.5284C138.17 46.5284 136.676 46.233 135.347 45.642C134.028 45.0398 132.983 44.1534 132.21 42.983C131.449 41.8125 131.068 40.3693 131.068 38.6534C131.068 37.1761 131.341 35.9545 131.886 34.9886C132.432 34.0227 133.176 33.25 134.119 32.6705C135.063 32.0909 136.125 31.6534 137.307 31.358C138.5 31.0511 139.733 30.8295 141.006 30.6932C142.54 30.5341 143.784 30.392 144.739 30.267C145.693 30.1307 146.386 29.9261 146.818 29.6534C147.261 29.3693 147.483 28.9318 147.483 28.3409V28.2386C147.483 26.9545 147.102 25.9602 146.341 25.2557C145.58 24.5511 144.483 24.1989 143.051 24.1989C141.54 24.1989 140.341 24.5284 139.455 25.1875C138.58 25.8466 137.989 26.625 137.682 27.5227L131.92 26.7045C132.375 25.1136 133.125 23.7841 134.17 22.7159C135.216 21.6364 136.494 20.8295 138.006 20.2955C139.517 19.75 141.188 19.4773 143.017 19.4773C144.278 19.4773 145.534 19.625 146.784 19.9205C148.034 20.2159 149.176 20.7045 150.21 21.3864C151.244 22.0568 152.074 22.9716 152.699 24.1307C153.335 25.2898 153.653 26.7386 153.653 28.4773V46H147.722V42.4034H147.517C147.142 43.1307 146.614 43.8125 145.932 44.4489C145.261 45.0739 144.415 45.5795 143.392 45.9659C142.381 46.3409 141.193 46.5284 139.83 46.5284ZM141.432 41.9943C142.67 41.9943 143.744 41.75 144.653 41.2614C145.563 40.7614 146.261 40.1023 146.75 39.2841C147.25 38.4659 147.5 37.5739 147.5 36.608V33.5227C147.307 33.6818 146.977 33.8295 146.511 33.9659C146.057 34.1023 145.545 34.2216 144.977 34.3239C144.409 34.4261 143.847 34.517 143.29 34.5966C142.733 34.6761 142.25 34.7443 141.841 34.8011C140.92 34.9261 140.097 35.1307 139.369 35.4148C138.642 35.6989 138.068 36.0966 137.648 36.608C137.227 37.108 137.017 37.7557 137.017 38.5511C137.017 39.6875 137.432 40.5455 138.261 41.125C139.091 41.7045 140.148 41.9943 141.432 41.9943ZM159.858 46V19.8182H166.028V46H159.858ZM162.96 16.1023C161.983 16.1023 161.142 15.7784 160.438 15.1307C159.733 14.4716 159.381 13.6818 159.381 12.7614C159.381 11.8295 159.733 11.0398 160.438 10.392C161.142 9.73295 161.983 9.40341 162.96 9.40341C163.949 9.40341 164.79 9.73295 165.483 10.392C166.188 11.0398 166.54 11.8295 166.54 12.7614C166.54 13.6818 166.188 14.4716 165.483 15.1307C164.79 15.7784 163.949 16.1023 162.96 16.1023ZM178.544 11.0909V46H172.374V11.0909H178.544ZM190.293 46L182.895 19.8182H189.185L193.787 38.2273H194.026L198.73 19.8182H204.952L209.656 38.125H209.912L214.446 19.8182H220.753L213.338 46H206.912L202.003 28.3068H201.645L196.736 46H190.293ZM225.061 46V19.8182H231.232V46H225.061ZM228.163 16.1023C227.186 16.1023 226.345 15.7784 225.641 15.1307C224.936 14.4716 224.584 13.6818 224.584 12.7614C224.584 11.8295 224.936 11.0398 225.641 10.392C226.345 9.73295 227.186 9.40341 228.163 9.40341C229.152 9.40341 229.993 9.73295 230.686 10.392C231.391 11.0398 231.743 11.8295 231.743 12.7614C231.743 13.6818 231.391 14.4716 230.686 15.1307C229.993 15.7784 229.152 16.1023 228.163 16.1023ZM243.747 30.6591V46H237.577V19.8182H243.474V24.267H243.781C244.384 22.8011 245.344 21.6364 246.662 20.7727C247.991 19.9091 249.634 19.4773 251.588 19.4773C253.395 19.4773 254.969 19.8636 256.31 20.6364C257.662 21.4091 258.707 22.5284 259.446 23.9943C260.196 25.4602 260.565 27.2386 260.554 29.3295V46H254.384V30.2841C254.384 28.5341 253.929 27.1648 253.02 26.1761C252.122 25.1875 250.878 24.6932 249.287 24.6932C248.207 24.6932 247.247 24.9318 246.406 25.4091C245.577 25.875 244.923 26.5511 244.446 27.4375C243.98 28.3239 243.747 29.3977 243.747 30.6591ZM276.543 46.4602C274.486 46.4602 272.645 45.9318 271.02 44.875C269.395 43.8182 268.111 42.2841 267.168 40.2727C266.224 38.2614 265.753 35.8182 265.753 32.9432C265.753 30.0341 266.23 27.5795 267.185 25.5795C268.151 23.5682 269.452 22.0511 271.088 21.0284C272.724 19.9943 274.548 19.4773 276.56 19.4773C278.094 19.4773 279.355 19.7386 280.344 20.2614C281.332 20.7727 282.116 21.392 282.696 22.1193C283.276 22.8352 283.724 23.5114 284.043 24.1477H284.298V11.0909H290.486V46H284.418V41.875H284.043C283.724 42.5114 283.264 43.1875 282.662 43.9034C282.06 44.608 281.264 45.2102 280.276 45.7102C279.287 46.2102 278.043 46.4602 276.543 46.4602ZM278.264 41.3977C279.571 41.3977 280.685 41.0455 281.605 40.3409C282.526 39.625 283.224 38.6307 283.702 37.358C284.179 36.0852 284.418 34.6023 284.418 32.9091C284.418 31.2159 284.179 29.7443 283.702 28.4943C283.236 27.2443 282.543 26.2727 281.622 25.5795C280.713 24.8864 279.594 24.5398 278.264 24.5398C276.889 24.5398 275.741 24.8977 274.821 25.6136C273.901 26.3295 273.207 27.3182 272.741 28.5795C272.276 29.8409 272.043 31.2841 272.043 32.9091C272.043 34.5455 272.276 36.0057 272.741 37.2898C273.219 38.5625 273.918 39.5682 274.838 40.3068C275.77 41.0341 276.912 41.3977 278.264 41.3977Z" fill="white"/>
<path d="M77.55 16.6957C74.0252 15.4712 70.914 13.2696 68.573 10.3432C65.9929 7.08272 62.7077 4.46067 58.9686 2.67764C55.2294 0.894613 51.1355 -0.00215616 47 0.0559382C41.4369 -0.341447 35.9295 1.38923 31.5746 4.90331C27.2197 8.4174 24.3368 13.457 23.5 19.0186C25.1482 16.237 27.6287 14.0545 30.5847 12.7852C33.5408 11.5159 36.8198 11.2252 39.95 11.955C43.4688 13.2151 46.575 15.4296 48.927 18.3549C51.5212 21.5894 54.8127 24.1843 58.551 25.9424C62.2894 27.7004 66.376 28.5751 70.5 28.5C76.0631 28.8974 81.5705 27.1667 85.9254 23.6526C90.2803 20.1385 93.1632 15.0989 94 9.53729C92.3818 12.3522 89.9091 14.5676 86.947 15.8566C83.985 17.1456 80.6905 17.4398 77.55 16.6957ZM16.45 40.3043C19.9747 41.5288 23.086 43.7304 25.427 46.6568C28.0071 49.9173 31.2923 52.5393 35.0314 54.3224C38.7706 56.1054 42.8645 57.0022 47 56.9441C52.5631 57.3414 58.0705 55.6108 62.4254 52.0967C66.7803 48.5826 69.6632 43.543 70.5 37.9814C68.8518 40.763 66.3713 42.9455 63.4152 44.2148C60.4592 45.4841 57.1802 45.7748 54.05 45.045C50.5311 43.7849 47.425 41.5704 45.073 38.6451C42.4718 35.4186 39.179 32.8294 35.4423 31.0721C31.7056 29.3149 27.6224 28.4354 23.5 28.5C17.9369 28.1026 12.4295 29.8333 8.07463 33.3474C3.71971 36.8615 0.836798 41.9011 0 47.4627C1.61824 44.6478 4.09092 42.4324 7.05298 41.1434C10.015 39.8544 13.3095 39.5602 16.45 40.3043Z" fill="#F1F0EE"/>
</svg>
