<svg width="197" height="52" viewBox="0 0 197 52" fill="none" xmlns="http://www.w3.org/2000/svg">
<path fill-rule="evenodd" clip-rule="evenodd" d="M125.856 42.9808C125.018 43.5495 124.421 43.9989 123.778 44.3804C121.11 45.9745 118.468 47.6113 115.734 49.1037C114.003 50.0495 112.05 49.9685 110.203 49.3733C108.413 48.7987 106.63 48.1505 104.958 47.3343C102.276 46.0246 101.427 43.5422 100.594 41.0597C99.1989 36.9007 101.088 33.3413 102.876 29.7539C103.207 29.0969 103.659 28.4928 104.029 27.849C104.555 26.9282 104.259 26.4465 103.12 26.5113C102.479 26.5467 101.796 26.7102 101.221 26.9798C96.2168 29.3356 91.8614 32.4338 88.534 36.6709C86.2457 39.5894 84.839 42.8704 83.9017 46.3576C83.332 48.4776 81.6309 49.6061 79.8264 49.2363C77.2867 48.7148 75.4805 45.2217 76.6438 43.0781C76.8284 42.7363 76.9923 42.3724 77.2533 42.0822C80.1478 38.8602 81.1631 34.875 82.4823 31.0195C83.2541 28.761 84.0131 26.4951 84.6735 24.2071C84.9949 23.0919 85.3896 21.9545 84.7531 20.7553C84.3616 20.0113 85.0109 19.3204 85.6633 19.2526C87.1416 19.0979 88.7631 18.8931 90.1221 19.2968C91.6148 19.7417 91.7389 21.3947 91.9903 22.6926C92.1399 23.4631 92.0189 24.2793 92.0189 25.3386C92.6189 25.0837 93.0485 24.9349 93.4448 24.7257C95.7028 23.5353 97.8972 22.233 100.221 21.1663C102.436 20.1498 104.702 20.7008 106.783 21.651C107.833 22.1313 108.376 22.0768 109.189 21.2341C110.995 19.3587 112.875 17.5112 114.948 15.898C116.668 14.5617 118.909 14.1654 121.149 14.3142C122.618 14.41 124.093 14.6619 125.521 14.9978C127.188 15.3941 128.243 16.7819 128.398 18.348C128.706 21.5332 127.333 24.2454 125.368 26.641C120.693 32.3439 115.395 37.4768 108.689 41.2026C107.763 41.7183 107.692 42.3326 108.12 43.1311C108.775 44.3451 110.357 44.8666 111.808 44.4526C115.908 43.2858 119.081 40.7621 122.356 38.3754C124.104 37.1011 125.971 35.9372 127.542 34.4964C128.425 33.6875 128.848 32.4338 129.419 31.351C131.595 27.2317 133.622 23.0403 135.933 18.9874C138.359 14.7238 141.076 10.6031 143.609 6.39106C144.308 5.22719 144.818 3.96461 145.388 2.73738C146.22 0.95327 147.524 -0.148727 149.77 0.0383767C150.181 0.0722616 150.6 0.0310081 151.015 0.0324813C153.937 0.0369011 155.529 2.36907 154.094 4.7528C152.808 6.88607 151.316 8.9118 149.866 10.9567C145.63 16.9352 141.259 22.8444 137.96 29.3326C136.396 32.4058 134.975 35.5586 133.778 38.7673C133.199 40.3187 133.2 42.0777 133.098 43.7514C133.035 44.846 133.864 45.2099 134.801 44.4806C136.346 43.277 137.74 41.9113 139.255 40.6752C140.549 39.6203 142.003 38.732 143.23 37.6211C143.865 37.0451 144.279 36.1906 144.591 35.3951C146.862 29.6287 149.772 24.1467 152.964 18.7811C155.257 14.9286 157.635 11.1158 159.921 7.25733C161.003 5.43049 161.903 3.50937 163.004 1.68989C163.688 0.559907 164.775 -0.106004 166.291 0.0413216C166.785 0.0899391 167.291 0.0796279 167.784 0.028064C171.158 -0.329937 172.214 2.81988 171 4.76163C169.986 6.37927 168.885 7.94976 167.781 9.51436C162.87 16.4608 157.744 23.2952 154.042 30.8928C152.585 33.8776 151.402 36.9891 150.292 40.1006C149.891 41.2277 150.004 42.5286 150.006 43.7514C150.006 44.8563 150.755 45.1863 151.704 44.4482C153.219 43.2696 154.613 41.9614 156.085 40.7297L159.613 37.8819C159.904 37.6403 160.244 37.3088 160.294 36.9832C161.217 31.0151 164.375 26.0649 168.468 21.5494C169.792 20.0864 171.118 18.597 172.637 17.3182C175.699 14.7459 179.671 15.3455 181.974 17.3771C182.623 17.9502 182.987 18.8371 183.366 19.6268C184.155 21.2547 184.728 21.6289 186.684 21.6231C188.999 21.6157 191.318 21.5376 193.625 21.654C194.531 21.6997 195.484 22.0724 196.287 22.5011C197.301 23.0447 197.209 24.0038 196.166 24.4443C193.223 25.6878 190.159 26.5599 186.897 26.6321C185.812 26.6572 185.342 26.996 185.062 28.0361C183.286 34.6319 180.81 40.9404 175.429 45.8581C174.302 46.8879 173.007 47.8617 171.597 48.4952C168.933 49.6915 166.61 48.454 164.442 47.0986C163.529 46.524 162.652 45.8434 161.931 45.0714C161.301 44.4011 160.949 44.4659 160.376 45.0626C158.725 46.7877 156.977 48.4216 154.63 49.3468C153.214 49.9037 151.836 50.241 150.21 49.7917C147.769 49.114 145.56 48.1932 143.98 46.2854C143.391 45.5708 142.992 45.6445 142.299 46.2043C140.999 47.2548 139.68 48.3332 138.2 49.1332C135.175 50.767 132.271 49.8418 129.547 48.3288C127.484 47.1899 126.027 45.5753 125.856 42.9808ZM166.466 39.8487C166.595 40.3835 166.665 41.1702 166.982 41.8597C167.256 42.449 167.743 43.277 168.26 43.3639C168.752 43.4479 169.584 42.8188 169.956 42.309C171.657 39.9666 173.299 37.5814 174.876 35.1638C176.966 31.9683 178.022 28.4442 178.396 24.7493C178.465 24.0952 178.312 23.3497 178.018 22.7486C177.257 21.212 176.487 21.1104 175.481 22.4967C173.435 25.3106 171.407 28.1452 169.577 31.0858C167.942 33.7126 166.866 36.5707 166.466 39.8487ZM121.189 20.4297C121.273 19.5811 120.855 19.3189 120.067 19.5133C119.838 19.5693 119.625 19.7211 119.437 19.864C114.697 23.4661 111.033 27.8313 108.596 33.0526C108.487 33.2839 108.632 33.6198 108.659 33.9071C108.957 33.8452 109.342 33.8746 109.542 33.7096C110.628 32.8242 111.672 31.899 112.719 30.9782C115.97 28.1186 118.871 25.0101 120.845 21.2385C120.989 20.963 121.087 20.6699 121.189 20.4297ZM71.1283 14.4601C70.3184 14.3805 69.7312 14.3083 69.1408 14.2686C67.4158 14.1507 65.6749 14.1345 63.9675 13.9061C62.5862 13.7205 61.9943 12.8675 61.9943 11.5327L62.0054 10.8432C62.077 8.49929 63.0032 8.14865 65.5174 8.48455C68.1001 8.82929 70.7989 8.72764 73.4166 8.50223C76.8602 8.20758 80.2688 7.54904 83.7028 7.14684C85.789 6.90375 87.8975 6.81388 89.9964 6.7137C92.7446 6.5811 94.9469 7.80243 96.8756 9.40681C97.3562 9.80459 97.536 10.8005 97.4214 11.4591C97.2002 12.7452 93.9731 14.08 92.6682 12.8734C91.7214 11.9997 90.477 11.711 89.1085 11.8613C86.5242 12.1471 83.9304 12.3769 81.3429 12.6509C80.6841 12.7202 80.4327 13.0384 80.1988 13.7146C79.7532 15.0052 78.9464 16.1956 78.2431 17.4036C75.2068 22.6337 72.5191 27.9964 70.861 33.7509C69.8394 37.2897 68.9196 40.852 68.0237 44.4202C67.8312 45.1893 67.8694 46.0275 67.9139 46.8275C68.0874 49.8772 66.2876 50.3353 63.6063 49.5295C62.8249 49.2967 62.0961 48.9063 61.345 48.5866C60.4778 48.2124 59.9049 47.573 60.0131 46.7023C60.2677 44.6604 60.4602 42.589 61.0108 40.6104C61.9927 37.0613 63.1145 33.5387 64.3749 30.0663C65.5413 26.8428 66.9305 23.6856 68.291 20.5225C69.1249 18.5793 70.0844 16.6803 71.1283 14.4601Z" fill="#F1F0EE"/>
<path d="M52 8.98097C52 5.67867 49.1573 3 45.6513 3H6.34873C2.84267 3 0 5.67867 0 8.98097V46.0175C0 49.3213 2.84267 52 6.34873 52H45.6497C49.1573 52 52 49.3213 52 46.019V8.98097ZM25.2121 40.1257C25.2121 41.5348 21.881 43.0909 20.239 43.0909H8.88097C7.24061 43.0909 6.30303 41.5348 6.30303 40.1257V10.0456C6.30303 8.63648 7.24061 8.93939 8.88097 8.93939H20.239C21.881 8.93939 25.2121 8.63648 25.2121 10.0456V40.1257ZM47.2727 14.1616V26.7576C47.2727 28.2588 45.2526 29.7273 43.6564 29.7273H32.2006C30.6044 29.7273 29.9394 28.2588 29.9394 26.7561V10.1228C29.9394 8.62015 30.6044 8.93939 32.2022 8.93939H43.6579C45.2526 8.93939 47.2727 8.62015 47.2727 10.1228V14.1616Z" fill="#F1F0EE"/>
</svg>
